<?xml version="1.0" encoding="UTF-8" standalone="no"?>
<!-- Created with Inkscape (http://www.inkscape.org/) -->

<svg
   xmlns:dc="http://purl.org/dc/elements/1.1/"
   xmlns:cc="http://creativecommons.org/ns#"
   xmlns:rdf="http://www.w3.org/1999/02/22-rdf-syntax-ns#"
   xmlns:svg="http://www.w3.org/2000/svg"
   xmlns="http://www.w3.org/2000/svg"
   xmlns:xlink="http://www.w3.org/1999/xlink"
   xmlns:sodipodi="http://sodipodi.sourceforge.net/DTD/sodipodi-0.dtd"
   xmlns:inkscape="http://www.inkscape.org/namespaces/inkscape"
   sodipodi:docname="transformation.svg"
   inkscape:version="0.48.0 r9654"
   version="1.1"
   id="svg2"
   height="48"
   width="48"
   inkscape:export-filename="/users/demons/bobot/Sources/why/share/images/transformation32.png"
   inkscape:export-xdpi="60"
   inkscape:export-ydpi="60">
  <sodipodi:namedview
     id="base"
     pagecolor="#ffffff"
     bordercolor="#666666"
     borderopacity="1.0"
     inkscape:pageopacity="0.0"
     inkscape:pageshadow="2"
     inkscape:zoom="7.6145833"
     inkscape:cx="24"
     inkscape:cy="25.00407"
     inkscape:document-units="px"
     inkscape:current-layer="svg2"
     showgrid="false"
     inkscape:window-width="1278"
     inkscape:window-height="1003"
     inkscape:window-x="0"
     inkscape:window-y="19"
     inkscape:window-maximized="0"
     showguides="true"
     inkscape:guide-bbox="true" />
  <defs
     id="defs4">
    <inkscape:path-effect
       effect="gears"
       id="path-effect5443"
       is_visible="true"
       teeth="14"
       phi="20" />
    <inkscape:path-effect
       effect="gears"
       id="path-effect5439"
       is_visible="true"
       teeth="11"
       phi="5" />
    <linearGradient
       id="linearGradient4578">
      <stop
         id="stop4580"
         offset="0"
         style="stop-color:#ffff00;stop-opacity:1;" />
      <stop
         style="stop-color:#ffa700;stop-opacity:1;"
         offset="0.72972971"
         id="stop4594" />
      <stop
         id="stop4582"
         offset="1"
         style="stop-color:#ff4f00;stop-opacity:1;" />
    </linearGradient>
    <inkscape:path-effect
       phi="20"
       teeth="45"
       is_visible="true"
       id="path-effect4550"
       effect="gears" />
    <inkscape:path-effect
       phi="5"
       teeth="10"
       is_visible="true"
       id="path-effect4546"
       effect="gears" />
    <inkscape:path-effect
       phi="20"
       teeth="45"
       is_visible="true"
       id="path-effect4550-1"
       effect="gears" />
    <radialGradient
       gradientUnits="userSpaceOnUse"
       gradientTransform="matrix(1.0158855,0.00580503,-0.00571134,0.99968017,-40.949575,-38.441927)"
       r="18.02556"
       fy="28.213875"
       fx="19.422436"
       cy="28.213875"
       cx="19.422436"
       id="radialGradient4584"
       xlink:href="#linearGradient4578"
       inkscape:collect="always" />
    <radialGradient
       gradientUnits="userSpaceOnUse"
       gradientTransform="matrix(1.0270045,-6.9432136e-5,7.0540703e-5,1.0282893,-41.849415,-38.654871)"
       r="8.457591"
       fy="10.957635"
       fx="37.251648"
       cy="10.957635"
       cx="37.251648"
       id="radialGradient4592"
       xlink:href="#linearGradient4578"
       inkscape:collect="always" />
    <inkscape:path-effect
       phi="20"
       teeth="45"
       is_visible="true"
       id="path-effect4550-7"
       effect="gears" />
    <inkscape:path-effect
       effect="gears"
       id="path-effect5443-3"
       is_visible="true"
       teeth="14"
       phi="20" />
    <radialGradient
       inkscape:collect="always"
       xlink:href="#linearGradient4578"
       id="radialGradient5522"
       gradientUnits="userSpaceOnUse"
       gradientTransform="matrix(1,0,0,1.0045806,0,-0.19798262)"
       cx="4.5135174"
       cy="43.222202"
       fx="4.5135174"
       fy="43.222202"
       r="10.495763" />
    <radialGradient
       inkscape:collect="always"
       xlink:href="#linearGradient4578"
       id="radialGradient5524"
       gradientUnits="userSpaceOnUse"
       gradientTransform="matrix(1,0,0,0.99999841,0,3.8798431e-5)"
       cx="24.549995"
       cy="24.429815"
       fx="24.549995"
       fy="24.429815"
       r="19.708355" />
    <radialGradient
       inkscape:collect="always"
       xlink:href="#linearGradient4578"
       id="radialGradient5526"
       gradientUnits="userSpaceOnUse"
       gradientTransform="matrix(1,0,0,1.0045843,0,-0.0258437)"
       cx="44.586422"
       cy="5.6374173"
       fx="44.586422"
       fy="5.6374173"
       r="10.495764" />
  </defs>
  <metadata
     id="metadata7">
    <rdf:RDF>
      <cc:Work
         rdf:about="">
        <dc:format>image/svg+xml</dc:format>
        <dc:type
           rdf:resource="http://purl.org/dc/dcmitype/StillImage" />
        <dc:title></dc:title>
      </cc:Work>
    </rdf:RDF>
  </metadata>
  <g
     transform="translate(0,-1004.3622)"
     inkscape:label="Calque 1"
     inkscape:groupmode="layer"
     id="layer1" />
  <path
     sodipodi:nodetypes="cccc"
     inkscape:original-d="M 66.028516,15.581739 77.0971,4.2825567 89.318655,-7.8237003 94.968245,-13.1274"
     inkscape:path-effect="#path-effect4550"
     inkscape:connector-curvature="0"
     id="path4548"
     d="m 66.142662,16.538494 c -0.236329,0.183018 -0.69769,0.481942 -1.433701,0.75756 -0.133275,-0.126332 -0.264344,-0.254991 -0.393134,-0.385902 0.269033,-0.732802 0.56703,-1.191493 0.753784,-1.422809 -0.172038,-0.185414 -0.340167,-0.374455 -0.504232,-0.566945 -0.266769,0.139766 -0.772511,0.362992 -1.546987,0.524914 -0.114395,-0.143651 -0.226283,-0.289299 -0.3356,-0.43686 0.368401,-0.688228 0.727335,-1.100982 0.944465,-1.304057 -0.144559,-0.207552 -0.284743,-0.418152 -0.420422,-0.631602 -0.283624,0.101278 -0.815511,0.251946 -1.604985,0.304507 -0.09329,-0.158174 -0.183819,-0.317977 -0.271535,-0.479316 0.460599,-0.630259 0.873484,-0.989042 1.116763,-1.159921 -0.114266,-0.225652 -0.223776,-0.453711 -0.328428,-0.683967 -0.294959,0.06082 -0.842639,0.135997 -1.631745,0.07817 C 60.416537,10.96265 60.349129,10.791804 60.28472,10.619827 60.828552,10.059805 61.287352,9.7619761 61.552045,9.6266175 61.470296,9.3872593 61.393591,9.1461782 61.322003,8.9035984 61.02145,8.9227759 60.468638,8.9209993 59.695259,8.753915 59.649182,8.5761541 59.606207,8.3975893 59.56636,8.2183224 60.182838,7.7394365 60.678623,7.5083591 60.959579,7.411156 60.911937,7.1627498 60.869531,6.9133397 60.8324,6.6631575 60.532103,6.6403196 59.984918,6.5616237 59.24232,6.2885318 59.22143,6.1060882 59.203725,5.9232803 59.189215,5.7402123 59.866342,5.3517842 60.389462,5.1919555 60.681211,5.1347999 60.668605,4.8821807 60.661323,4.6292961 60.659372,4.376381 60.365176,4.3119721 59.834268,4.1578885 59.136903,3.7841047 c 0.0047,-0.1835753 0.01262,-0.3670683 0.02372,-0.5503742 0.724596,-0.2904099 1.264869,-0.375879 1.561733,-0.3918747 0.02267,-0.2519152 0.05066,-0.5033523 0.08393,-0.7540775 -0.282369,-0.1047263 -0.786666,-0.3311984 -1.425223,-0.798399 0.03021,-0.1811339 0.06358,-0.36174037 0.10009,-0.54171627 0.757962,-0.18673941 1.304871,-0.19618521 1.601073,-0.17070971 0.05751,-0.246308 0.120218,-0.49140353 0.188055,-0.73505887 -0.265046,-0.14300525 -0.732916,-0.43745786 -1.300237,-0.98898165 0.05512,-0.175167 0.113303,-0.3493717 0.174508,-0.5225146 0.776575,-0.079434 1.319476,-0.012673 1.60925,0.053778 0.09123,-0.2359067 0.187438,-0.4698902 0.288525,-0.7017332 -0.242564,-0.1785007 -0.664901,-0.5352027 -1.149943,-1.1603149 0.07896,-0.1657906 0.160824,-0.3302029 0.245529,-0.4931427 0.780072,0.029417 1.308399,0.171086 1.586105,0.2772189 0.123177,-0.2209137 0.251009,-0.4392309 0.383379,-0.654749 -0.21536,-0.210522 -0.583944,-0.6225305 -0.977267,-1.309064 0.10127,-0.1531873 0.205214,-0.304607 0.311772,-0.4541724 0.768387,0.137696 1.271855,0.351515 1.532087,0.4952642 0.152724,-0.2016209 0.309696,-0.4000226 0.470772,-0.5950209 -0.183965,-0.2384457 -0.491621,-0.6977414 -0.78557,-1.4323337 0.121604,-0.1376024 0.24561,-0.2730823 0.371947,-0.4063621 0.741745,0.2432947 1.210556,0.5251022 1.448249,0.7036697 0.179298,-0.1784038 0.362355,-0.3530283 0.549002,-0.5237114 -0.148991,-0.2617282 -0.389731,-0.7593716 -0.578583,-1.5277246 0.139571,-0.1193392 0.281225,-0.2362423 0.424881,-0.3506425 0.700667,0.3441579 1.125696,0.6884688 1.336224,0.8983791 0.202381,-0.1517143 0.40796,-0.2991627 0.616545,-0.4422085 -0.111115,-0.2799165 -0.280254,-0.8062212 -0.360334,-1.5933802 0.154822,-0.09875 0.311367,-0.194804 0.469547,-0.288098 0.64595,0.438323 1.018923,0.838435 1.198189,1.075603 0.221526,-0.122072 0.445625,-0.239475 0.672088,-0.352099 -0.07108,-0.292656 -0.165321,-0.837379 -0.135071,-1.628022 0.167059,-0.07624 0.335448,-0.149574 0.505072,-0.219946 0.578661,0.523956 0.89232,0.972082 1.036834,1.231891 0.236359,-0.09005 0.474617,-0.175125 0.71455,-0.255136 -0.02966,-0.2997 -0.04717,-0.852238 0.09282,-1.630976 0.176045,-0.05225 0.353001,-0.101434 0.530768,-0.147513 0.500109,0.59939 0.748348,1.086809 0.855297,1.364201 0.246592,-0.05628 0.494371,-0.107367 0.743105,-0.153206 0.01234,-0.300911 0.0719,-0.85051 0.318904,-1.602186 0.181603,-0.02724 0.363682,-0.05132 0.546132,-0.07221 0.411823,0.663159 0.589811,1.180382 0.657114,1.469959 0.252025,-0.02142 0.504501,-0.03752 0.757194,-0.04829 0.0541,-0.296264 0.189564,-0.832226 0.538783,-1.542211 0.183627,-0.0017 0.367284,-2.04e-4 0.550866,0.0045 0.315521,0.71402 0.419794,1.250981 0.44614,1.547106 0.252553,0.01387 0.504814,0.03306 0.756547,0.05756 0.09481,-0.285852 0.303543,-0.797745 0.748173,-1.452219 0.182078,0.02387 0.363739,0.05091 0.54488,0.08112 0.213078,0.750984 0.241605,1.29723 0.226482,1.594141 0.248165,0.04888 0.4953,0.102994 0.741174,0.162287 0.133668,-0.269875 0.411613,-0.747736 0.943002,-1.33396 0.176984,0.04898 0.353113,0.101042 0.528286,0.156166 0.106488,0.77333 0.05871,1.318231 0.0024,1.610147 0.238947,0.08294 0.476145,0.170924 0.711375,0.263859 0.169927,-0.248646 0.511672,-0.683174 1.119476,-1.189737 0.168445,0.07313 0.335614,0.149202 0.501411,0.228169 -0.0022,0.780624 -0.12532,1.313573 -0.221696,1.594814 0.225078,0.115391 0.447724,0.235527 0.66773,0.3602953 0.202878,-0.2225763 0.601772,-0.6053143 1.27416,-1.0223583 0.156629,0.09586 0.311584,0.194459 0.464777,0.295732 -0.110796,0.7727241 -0.306914,1.2833485 -0.441494,1.5484387 0.206828,0.1455937 0.410588,0.2955467 0.611088,0.4497193 0.231881,-0.1921755 0.68016,-0.5156732 1.404046,-0.8350796 0.141762,0.116728 0.281487,0.23593 0.419095,0.3575383 -0.21726,0.749784 -0.482535,1.2281446 -0.652698,1.4719252 0.184553,0.1729617 0.365459,0.3498131 0.542552,0.5303897 0.256369,-0.1580338 0.745308,-0.4159949 1.506602,-0.6315474 0.124138,0.1353215 0.245913,0.2728095 0.365257,0.4123855 -0.319495,0.7122505 -0.648763,1.1490367 -0.851198,1.3667626 0.158685,0.1969632 0.313218,0.3972708 0.463456,0.6007367 0.275868,-0.1208162 0.79595,-0.3082197 1.579834,-0.4157228 0.104096,0.1512812 0.205552,0.304379 0.304309,0.4592062 -0.415512,0.6608537 -0.802364,1.0475639 -1.033131,1.2349974 0.129729,0.217131 0.254881,0.4369961 0.37534,0.659391 0.289998,-0.081247 0.831099,-0.1944454 1.622316,-0.1918066 0.08203,0.1642963 0.161191,0.3300241 0.237439,0.4970889 -0.503441,0.5965942 -0.940349,0.9257015 -1.194955,1.0791944 0.09825,0.2330727 0.191582,0.4682159 0.279917,0.705211 0.298483,-0.040096 0.850073,-0.076886 1.633223,0.035843 0.05837,0.1741136 0.113691,0.3492457 0.165946,0.52529631 -0.581572,0.52072271 -1.06003,0.78582143 -1.33352,0.90238622 0.06485,0.24447776 0.124554,0.49032223 0.179046,0.73730486 0.301159,0.001835 0.852501,0.0421692 1.61234,0.26279471 0.03356,0.180542 0.06398,0.3616696 0.09123,0.5432795 -0.648383,0.4347159 -1.159079,0.6306462 -1.446131,0.708014 0.0302,0.2511244 0.0551,0.5028851 0.07469,0.755048 0.297972,0.04373 0.838335,0.1604039 1.560075,0.4846315 0.0081,0.1834564 0.01302,0.3670541 0.01473,0.5506883 -0.702573,0.3402479 -1.235568,0.4631962 -1.530593,0.4998612 -0.005,0.2528832 -0.01542,0.5056598 -0.03112,0.7580949 0.288986,0.084774 0.807852,0.2755166 1.477444,0.6970356 -0.0175,0.1827999 -0.03819,0.3652942 -0.06206,0.5473786 -0.74309,0.2391573 -1.288008,0.2867306 -1.585266,0.2819791 -0.04019,0.2497199 -0.08565,0.4985925 -0.136321,0.7463864 0.274375,0.1241682 0.761646,0.3852666 1.366057,0.8958726 -0.04277,0.1785855 -0.08866,0.3564242 -0.137634,0.5334148 -0.769142,0.1334118 -1.315378,0.1046841 -1.609081,0.058609 -0.07456,0.2416961 -0.154203,0.4818206 -0.238872,0.7201503 0.254424,0.1611455 0.700615,0.4875181 1.228082,1.0772721 -0.06721,0.170895 -0.137399,0.340617 -0.210532,0.509069 -0.780224,0.02507 -1.317146,-0.0794 -1.601579,-0.165903 -0.107466,0.228968 -0.219759,0.455671 -0.336773,0.679898 0.229522,0.194986 0.625948,0.58028 1.066203,1.237704 -0.09034,0.159879 -0.183466,0.31818 -0.279331,0.474814 -0.77612,-0.08376 -1.293278,-0.261938 -1.562903,-0.387184 -0.138287,0.211783 -0.281038,0.420651 -0.428119,0.626411 0.200151,0.225032 0.539096,0.661747 0.883571,1.374045 -0.111709,0.14575 -0.225962,0.28955 -0.342694,0.431318 -0.756909,-0.19096 -1.244237,-0.439379 -1.493807,-0.60093 -0.166416,0.190476 -0.336846,0.377445 -0.511132,0.560732 0.166885,0.250697 0.441752,0.730335 0.683742,1.483643 -0.130906,0.128784 -0.264061,0.255284 -0.399387,0.379426 -0.722966,-0.294443 -1.170978,-0.608267 -1.395636,-0.80298 -0.191305,0.165462 -0.386098,0.326892 -0.584196,0.484139 0.13037,0.271484 0.33581,0.784708 0.470605,1.564363 -0.147557,0.109313 -0.29702,0.21605 -0.448307,0.32015 -0.674952,-0.392195 -1.074928,-0.765316 -1.2703,-0.9894 -0.212472,0.137227 -0.427835,0.269976 -0.645891,0.398123 0.09132,0.286986 0.223332,0.823807 0.248308,1.614634 -0.161333,0.08771 -0.324197,0.17261 -0.488499,0.254642 -0.613801,-0.482314 -0.957956,-0.907469 -1.120241,-1.156563 -0.229502,0.106321 -0.461244,0.207805 -0.695012,0.304358 0.05049,0.296902 0.106506,0.846871 0.02118,1.633478 -0.17197,0.06441 -0.345065,0.125811 -0.519184,0.184178 -0.540703,-0.563044 -0.822338,-1.031959 -0.948376,-1.301215 -0.242066,0.07335 -0.485677,0.14159 -0.730607,0.204669 0.0087,0.301039 -0.01239,0.853453 -0.206365,1.620529 -0.179261,0.03985 -0.359217,0.07656 -0.539765,0.110129 -0.457079,-0.632816 -0.670713,-1.136364 -0.758052,-1.42054 -0.249917,0.03894 -0.500656,0.07262 -0.751981,0.100996 -0.0333,0.299317 -0.131049,0.843423 -0.429891,1.576038 -0.183061,0.01451 -0.366376,0.02582 -0.549839,0.03394 -0.36456,-0.690271 -0.506034,-1.21865 -0.552973,-1.512216 -0.252905,0.0038 -0.50589,0.0022 -0.758719,-0.0046 -0.07464,0.291769 -0.247155,0.816976 -0.645049,1.500871 -0.183299,-0.01111 -0.366405,-0.02542 -0.549211,-0.04292 -0.264945,-0.73429 -0.331507,-1.277216 -0.337132,-1.574459 -0.250971,-0.03145 -0.501278,-0.06819 -0.75069,-0.11019 -0.114517,0.278542 -0.358451,0.774628 -0.847652,1.396491 -0.179969,-0.03651 -0.359301,-0.07616 -0.537893,-0.118934 -0.160173,-0.764017 -0.150526,-1.310924 -0.114729,-1.606056 -0.244151,-0.06607 -0.486909,-0.137294 -0.728048,-0.213593 -0.152168,0.259893 -0.46277,0.717202 -1.033757,1.264929 -0.173137,-0.0612 -0.345205,-0.125427 -0.516106,-0.192637 -0.05228,-0.778873 0.03338,-1.319115 0.109907,-1.606393 -0.232579,-0.09941 -0.463062,-0.203722 -0.691236,-0.312839 -0.186857,0.236187 -0.558081,0.645817 -1.199741,1.108748 -0.162933,-0.0847 -0.324389,-0.172249 -0.484273,-0.26259 0.05662,-0.77857 0.216644,-1.301631 0.332404,-1.575464 -0.21648,-0.130811 -0.430203,-0.266185 -0.64097,-0.405996 -0.21791,0.207882 -0.642531,0.561863 -1.342373,0.930987 -0.14956,-0.106555 -0.297259,-0.21572 -0.443015,-0.327433 0.164428,-0.763113 0.395688,-1.258813 0.548432,-1.51387 -0.196168,-0.159666 -0.388971,-0.323468 -0.578229,-0.491251 m 27.479921,-36.750452 c 0,0 -0.07583,-0.476122 0.288739,-1.284509 0.175755,-0.02172 0.352195,-0.0379 0.528971,-0.04848 0.50545,0.728643 0.517439,1.210616 0.517439,1.210616 l -6.2e-4,0.303473 c 0.291918,5.95e-4 0.583796,0.01979 0.873276,0.05744 l 0.03913,-0.300939 c 0,0 0.07501,-0.476252 0.671542,-1.132416 0.173866,0.03365 0.346669,0.07279 0.518064,0.117349 0.255548,0.849173 0.118013,1.311262 0.118013,1.311262 l -0.09437,0.288428 c 0.277446,0.09077 0.549106,0.199227 0.812786,0.324482 l 0.130214,-0.274117 c 0,0 0.21851,-0.429762 0.98861,-0.869473 0.154958,0.08573 0.307208,0.176355 0.456445,0.271696 -0.01937,0.88658 -0.292965,1.283551 -0.292965,1.283551 l -0.178878,0.245151 c 0.235816,0.172066 0.460666,0.359159 0.672735,0.559765 l 0.208547,-0.220463 c 0,0 0.340617,-0.341204 1.208907,-0.52142 0.12088,0.129418 0.23767,0.262656 0.35015,0.399447 -0.29239,0.837203 -0.67527,1.130199 -0.67527,1.130199 l -0.24588,0.177876 c 0.1711,0.236516 0.32713,0.483934 0.46683,0.740255 l 0.26647,-0.145228 c 0,0 0.42939,-0.219247 1.31087,-0.122328 0.075,0.160439 0.14487,0.323246 0.20957,0.488098 -0.53679,0.705875 -0.99147,0.866215 -0.99147,0.866215 l -0.28881,0.09319 c 0.0896,0.277814 0.16158,0.561339 0.21523,0.848283 l 0.29831,-0.05578 c 0,0 0.47612,-0.07583 1.28451,0.288739 0.0217,0.175755 0.0379,0.352195 0.0485,0.528971 -0.72864,0.50545 -1.21062,0.517439 -1.21062,0.517439 l -0.30347,-6.2e-4 c -5.9e-4,0.291918 -0.0198,0.583796 -0.0574,0.873276 l 0.30094,0.03913 c 0,0 0.47625,0.07501 1.13241,0.671542 -0.0337,0.173866 -0.0728,0.346669 -0.11735,0.518064 -0.84917,0.255548 -1.31126,0.118013 -1.31126,0.118013 l -0.28843,-0.09437 c -0.0908,0.277446 -0.19922,0.549106 -0.32448,0.812786 l 0.27412,0.130214 c 0,0 0.42976,0.2185105 0.86947,0.9886102 -0.0857,0.1549581 -0.17635,0.3072075 -0.2717,0.4564446 -0.88658,-0.019367 -1.28355,-0.2929651 -1.28355,-0.2929651 l -0.24515,-0.1788777 c -0.17206,0.2358159 -0.35916,0.4606664 -0.559763,0.6727349 l 0.220463,0.2085473 c 0,0 0.3412,0.3406198 0.52142,1.2089063 -0.12942,0.1208821 -0.26266,0.237675 -0.39945,0.350146 -0.8372,-0.2923879 -1.130196,-0.6752657 -1.130196,-0.6752657 l -0.177876,-0.2458784 c -0.236516,0.1711027 -0.483934,0.3271335 -0.740255,0.4668318 l 0.145228,0.2664671 c 0,0 0.219247,0.4293866 0.122328,1.3108661 -0.160439,0.074973 -0.323246,0.1448772 -0.488098,0.2095725 -0.705875,-0.5367873 -0.866215,-0.9914666 -0.866215,-0.9914666 l -0.09319,-0.2888108 c -0.277814,0.089641 -0.561339,0.1615785 -0.848283,0.215232 l 0.05578,0.2983032 c 0,0 0.07583,0.4761221 -0.288739,1.2845091 -0.175755,0.021726 -0.352195,0.037898 -0.528971,0.048485 -0.50545,-0.7286422 -0.517439,-1.2106158 -0.517439,-1.2106158 l 6.2e-4,-0.3034724 c -0.291918,-5.958e-4 -0.583796,-0.019793 -0.873276,-0.057436 l -0.03913,0.3009394 c 0,0 -0.07501,0.4762514 -0.671542,1.1324153 -0.173866,-0.033649 -0.346669,-0.072791 -0.518064,-0.1173491 -0.255548,-0.8491726 -0.118013,-1.3112615 -0.118013,-1.3112615 l 0.09437,-0.2884281 c -0.277446,-0.090774 -0.549106,-0.1992268 -0.812786,-0.3244821 l -0.130214,0.2741175 c 0,0 -0.21851,0.4297619 -0.98861,0.8694729 -0.154958,-0.085729 -0.307208,-0.1763551 -0.456445,-0.2716959 0.01937,-0.8865801 0.292965,-1.2835519 0.292965,-1.2835519 l 0.178878,-0.2451503 c -0.235816,-0.1720667 -0.460666,-0.359159 -0.672735,-0.5597655 l -0.208547,0.220463 c 0,0 -0.34062,0.3412043 -1.208907,0.5214205 -0.120882,-0.1294183 -0.237675,-0.262656 -0.350145,-0.3994474 0.292387,-0.8372029 0.675265,-1.1301992 0.675265,-1.1301992 l 0.245879,-0.1778755 C 89.222036,-9.330723 89.066005,-9.5781411 88.926307,-9.834462 l -0.266467,0.1452282 c 0,0 -0.429387,0.2192472 -1.310866,0.1223277 -0.07497,-0.1604387 -0.144878,-0.3232463 -0.209573,-0.4880979 0.536787,-0.705875 0.991467,-0.866215 0.991467,-0.866215 l 0.288811,-0.09319 c -0.08964,-0.277814 -0.161579,-0.561339 -0.215233,-0.848283 l -0.298303,0.05578 c 0,0 -0.476122,0.07583 -1.284509,-0.288739 -0.02173,-0.175755 -0.0379,-0.352195 -0.04848,-0.528971 0.728643,-0.50545 1.210616,-0.517439 1.210616,-0.517439 l 0.303473,6.2e-4 c 5.95e-4,-0.291918 0.01979,-0.583796 0.05744,-0.873276 l -0.300939,-0.03913 c 0,0 -0.476252,-0.07501 -1.132416,-0.671542 0.03365,-0.173866 0.07279,-0.346669 0.117349,-0.518064 0.849173,-0.255548 1.311262,-0.118013 1.311262,-0.118013 l 0.288428,0.09437 c 0.09077,-0.277446 0.199227,-0.549106 0.324482,-0.812786 l -0.274117,-0.130214 c 0,0 -0.429762,-0.21851 -0.869473,-0.98861 0.08573,-0.154958 0.176355,-0.307208 0.271696,-0.456445 0.88658,0.01937 1.283551,0.292965 1.283551,0.292965 l 0.245151,0.178878 c 0.172066,-0.235816 0.359159,-0.460666 0.559765,-0.672735 l -0.220463,-0.208547 c 0,0 -0.341204,-0.34062 -0.52142,-1.208907 0.129418,-0.120882 0.262656,-0.237675 0.399447,-0.350145 0.837203,0.292387 1.130199,0.675265 1.130199,0.675265 l 0.177876,0.245879 c 0.236516,-0.171103 0.483934,-0.327134 0.740255,-0.466832 l -0.145228,-0.266467 c 0,0 -0.219247,-0.429387 -0.122328,-1.310866 0.160439,-0.07497 0.323246,-0.144878 0.488098,-0.209573 0.705875,0.536787 0.866215,0.991467 0.866215,0.991467 l 0.09319,0.288811 c 0.277814,-0.08964 0.561339,-0.161579 0.848283,-0.215233 l -0.05578,-0.298303"
     style="fill:none;stroke:#000000;stroke-width:0.08940168px;stroke-linecap:butt;stroke-linejoin:miter;stroke-opacity:1" />
  <path
     id="path4576"
     d="m -32.09234,2.1885508 c -0.236329,0.183018 -0.69769,0.481943 -1.433701,0.757561 -0.133275,-0.126333 -0.264345,-0.254991 -0.393134,-0.385902 0.269033,-0.732803 0.56703,-1.191493 0.753784,-1.42281 -0.172038,-0.185414 -0.340167,-0.374454 -0.504232,-0.566944 -0.266769,0.139765 -0.772511,0.362991 -1.546987,0.524914 -0.114395,-0.143652 -0.226283,-0.289299 -0.3356,-0.43686 0.368401,-0.688229 0.727335,-1.100983 0.944465,-1.304057 -0.144559,-0.207553 -0.284743,-0.418152 -0.420422,-0.631602 -0.283624,0.101278 -0.815511,0.251946 -1.604985,0.304506 -0.09329,-0.158174 -0.183819,-0.317976 -0.271535,-0.479315 0.460598,-0.630259 0.873484,-0.989042 1.116763,-1.159922 -0.114266,-0.225651 -0.223776,-0.453711 -0.328428,-0.683967 -0.294959,0.06082 -0.842639,0.135997 -1.631745,0.078173 -0.07037,-0.169619 -0.137776,-0.340465 -0.202185,-0.512441 0.543831,-0.560023 1.002632,-0.857851 1.267325,-0.99321 -0.08175,-0.239358 -0.158454,-0.480439 -0.230042,-0.723019 -0.300553,0.019177 -0.853366,0.017401 -1.626744,-0.149684 -0.04608,-0.17776 -0.08905,-0.356325 -0.1289,-0.535592 0.616479,-0.478886 1.112264,-0.709963 1.39322,-0.807167 -0.04764,-0.248406 -0.09005,-0.497816 -0.127179,-0.747998 -0.300297,-0.022838 -0.847482,-0.101534 -1.59008,-0.374626 -0.02089,-0.182443 -0.0386,-0.365251 -0.0531,-0.548319 0.677127,-0.388428 1.200247,-0.548257 1.491996,-0.605413 -0.01261,-0.252619 -0.01989,-0.505503 -0.02184,-0.758419 -0.294196,-0.064408 -0.825103,-0.2184918 -1.522468,-0.5922758 0.0047,-0.183575 0.01261,-0.367068 0.02372,-0.550374 0.724597,-0.29041 1.264869,-0.375879 1.561734,-0.391875 0.02267,-0.251915 0.05066,-0.503352 0.08392,-0.754077 -0.282368,-0.104727 -0.786665,-0.331199 -1.425222,-0.798399 0.03021,-0.181134 0.06358,-0.361741 0.100089,-0.541717 0.757962,-0.186739 1.304872,-0.196185 1.601074,-0.170709 0.05751,-0.246308 0.120217,-0.491404 0.188055,-0.735059 -0.265046,-0.143005 -0.732916,-0.437458 -1.300237,-0.988982 0.05512,-0.175167 0.113303,-0.349371 0.174508,-0.522514 0.776574,-0.07944 1.319476,-0.01267 1.60925,0.05378 0.09123,-0.235907 0.187437,-0.469891 0.288525,-0.701734 -0.242564,-0.1785 -0.664901,-0.535202 -1.149944,-1.160314 0.07896,-0.165791 0.160824,-0.330203 0.24553,-0.493143 0.780072,0.02942 1.308399,0.171086 1.586105,0.277219 0.123176,-0.220916 0.251009,-0.439233 0.383379,-0.654751 -0.215361,-0.210522 -0.583944,-0.622531 -0.977267,-1.309064 0.10127,-0.153188 0.205214,-0.304607 0.311772,-0.454173 0.768386,0.137696 1.271855,0.351515 1.532087,0.495265 0.152723,-0.201621 0.309696,-0.400023 0.470772,-0.595021 -0.183966,-0.238446 -0.491622,-0.697742 -0.78557,-1.432334 0.121604,-0.137602 0.24561,-0.273082 0.371946,-0.406362 0.741745,0.243294 1.210557,0.525102 1.44825,0.703669 0.179297,-0.178403 0.362354,-0.353028 0.549001,-0.523711 -0.14899,-0.261728 -0.38973,-0.759371 -0.578583,-1.527724 0.139572,-0.11934 0.281226,-0.236243 0.424882,-0.350643 0.700666,0.344158 1.125695,0.688469 1.336224,0.898379 0.202381,-0.151714 0.40796,-0.299163 0.616545,-0.442208 -0.111115,-0.279917 -0.280254,-0.806222 -0.360334,-1.59338 0.154822,-0.09875 0.311367,-0.194805 0.469547,-0.288098 0.64595,0.438322 1.018923,0.838435 1.198189,1.075602 0.221526,-0.122072 0.445625,-0.239474 0.672088,-0.352098 -0.07108,-0.292657 -0.165322,-0.83738 -0.135071,-1.628023 0.167059,-0.07625 0.335448,-0.149574 0.505072,-0.219946 0.578661,0.523956 0.89232,0.972083 1.036834,1.231891 0.236359,-0.09005 0.474617,-0.175125 0.71455,-0.255135 -0.02965,-0.299701 -0.04717,-0.852238 0.09282,-1.630977 0.176044,-0.05225 0.353001,-0.101433 0.530768,-0.147513 0.500109,0.599391 0.748348,1.086809 0.855297,1.364201 0.246592,-0.05628 0.49437,-0.107366 0.743104,-0.153206 0.01234,-0.300911 0.0719,-0.850509 0.318905,-1.602186 0.181603,-0.02724 0.363682,-0.05132 0.546132,-0.07221 0.411823,0.663159 0.589811,1.180382 0.657114,1.469959 0.252025,-0.02142 0.504501,-0.03752 0.757194,-0.04829 0.0541,-0.296265 0.189564,-0.832227 0.538782,-1.542211 0.183628,-0.0017 0.367285,-2.04e-4 0.550867,0.0045 0.315521,0.714019 0.419794,1.25098 0.44614,1.547106 0.252553,0.01387 0.504813,0.03306 0.756547,0.05756 0.09481,-0.285852 0.303542,-0.797745 0.748173,-1.452218 0.182078,0.02387 0.363739,0.05091 0.544879,0.08112 0.213079,0.750983 0.241605,1.29723 0.226483,1.59414 0.248165,0.04888 0.4953,0.102995 0.741174,0.162287 0.133668,-0.269875 0.411613,-0.747736 0.943001,-1.33396 0.176985,0.04898 0.353114,0.101042 0.528287,0.156167 0.106488,0.773329 0.05871,1.31823 0.0024,1.610146 0.238947,0.08294 0.476145,0.170925 0.711375,0.263859 0.169927,-0.248645 0.511672,-0.683174 1.119476,-1.189737 0.168445,0.07313 0.335614,0.149202 0.501411,0.22817 -0.0022,0.780623 -0.12532,1.313573 -0.221696,1.594813 0.225078,0.115392 0.447723,0.235528 0.66773,0.360295 0.202878,-0.222576 0.601772,-0.605314 1.27416,-1.022358 0.156629,0.09586 0.311584,0.194459 0.464777,0.295732 -0.110796,0.772724 -0.306914,1.283349 -0.441494,1.548439 0.206828,0.145594 0.410587,0.295547 0.611088,0.449719 0.23188,-0.192175 0.680159,-0.515673 1.4040448,-0.835079 0.141763,0.116728 0.281488,0.23593 0.419096,0.357538 -0.21726,0.749784 -0.482535,1.228145 -0.652698,1.471925 0.184553,0.172962 0.365459,0.349813 0.542552,0.53039 0.256369,-0.158034 0.745308,-0.415995 1.506602,-0.631548 0.124137,0.135322 0.245913,0.27281 0.365257,0.412386 -0.319495,0.71225 -0.648763,1.149037 -0.851198,1.366762 0.158685,0.196964 0.313218,0.397271 0.463456,0.600737 0.275868,-0.120816 0.79595,-0.30822 1.579834,-0.415723 0.104096,0.151282 0.205552,0.304379 0.304309,0.459207 -0.415512,0.660853 -0.802364,1.047563 -1.033131,1.234997 0.129729,0.217131 0.254881,0.436996 0.37534,0.659391 0.289998,-0.08125 0.831099,-0.194445 1.622316,-0.191807 0.08203,0.164297 0.161191,0.330024 0.237439,0.497089 -0.503441,0.596594 -0.940349,0.925702 -1.194955,1.079195 0.09825,0.233072 0.191582,0.468216 0.279917,0.705211 0.298483,-0.0401 0.850073,-0.07689 1.633223,0.03584 0.05837,0.174113 0.113691,0.349245 0.165946,0.525296 -0.581572,0.520723 -1.06003,0.785821 -1.33352,0.902386 0.06485,0.244478 0.124554,0.490322 0.179046,0.737305 0.301159,0.0018 0.852501,0.04217 1.61234,0.262795 0.03356,0.180542 0.06398,0.361669 0.09122,0.543279 -0.648383,0.434716 -1.159079,0.630646 -1.446131,0.708014 0.0302,0.251125 0.0551,0.502885 0.07469,0.755048 0.297972,0.04373 0.838335,0.160404 1.560075,0.484632 0.0081,0.183456 0.01302,0.367054 0.01473,0.550688 -0.702573,0.3402478 -1.235568,0.4631958 -1.530593,0.4998608 -0.005,0.252883 -0.01542,0.50566 -0.03112,0.758095 0.288986,0.08477 0.807852,0.275517 1.477444,0.697036 -0.0175,0.1828 -0.03819,0.365294 -0.06206,0.547378 -0.74309,0.239158 -1.288008,0.286731 -1.585266,0.281979 -0.04019,0.24972 -0.08565,0.498593 -0.136321,0.746387 0.274375,0.124168 0.761646,0.385266 1.366057,0.895872 -0.04277,0.178586 -0.08866,0.356425 -0.137634,0.533415 -0.769142,0.133412 -1.315378,0.104684 -1.609081,0.05861 -0.07456,0.241696 -0.154203,0.48182 -0.238872,0.72015 0.254425,0.161146 0.700615,0.487518 1.228082,1.077273 -0.06721,0.170895 -0.137399,0.340617 -0.210532,0.509068 -0.780224,0.02507 -1.317146,-0.0794 -1.601579,-0.165902 -0.107466,0.228968 -0.219759,0.45567 -0.336772,0.679897 0.229521,0.194986 0.625947,0.58028 1.066202,1.237704 -0.09034,0.159879 -0.183466,0.31818 -0.279331,0.474815 -0.77612,-0.08376 -1.293278,-0.261939 -1.562903,-0.387185 -0.138287,0.211783 -0.281037,0.420651 -0.428119,0.626411 0.200151,0.225032 0.539096,0.661748 0.883572,1.374046 -0.11171,0.14575 -0.225963,0.28955 -0.342695,0.431318 -0.756909,-0.190961 -1.244236,-0.439379 -1.493807,-0.600931 -0.166416,0.190476 -0.336846,0.377445 -0.511132,0.560732 0.166885,0.250698 0.441752,0.730335 0.683742,1.483643 -0.130906,0.128785 -0.264061,0.255284 -0.399387,0.379427 -0.722966,-0.294444 -1.1709778,-0.608268 -1.3956358,-0.802981 -0.191305,0.165462 -0.386098,0.326892 -0.584196,0.48414 0.13037,0.271483 0.33581,0.784708 0.470605,1.564363 -0.147556,0.109312 -0.29702,0.216049 -0.448306,0.32015 -0.674953,-0.392196 -1.074928,-0.765317 -1.270301,-0.989401 -0.212472,0.137227 -0.427835,0.269976 -0.64589,0.398123 0.09132,0.286986 0.223331,0.823807 0.248307,1.614634 -0.161333,0.08771 -0.324197,0.17261 -0.488499,0.254643 -0.613801,-0.482314 -0.957956,-0.90747 -1.120241,-1.156564 -0.229502,0.106321 -0.461244,0.207805 -0.695012,0.304358 0.05049,0.296902 0.106507,0.846872 0.02118,1.633479 -0.171971,0.06441 -0.345066,0.12581 -0.519185,0.184178 -0.540702,-0.563045 -0.822338,-1.03196 -0.948376,-1.301216 -0.242066,0.07335 -0.485677,0.141591 -0.730607,0.204669 0.0087,0.301039 -0.01239,0.853453 -0.206365,1.620529 -0.179261,0.03985 -0.359216,0.07656 -0.539765,0.110129 -0.457079,-0.632816 -0.670713,-1.136363 -0.758052,-1.42054 -0.249917,0.03894 -0.500655,0.07262 -0.751981,0.100996 -0.0333,0.299317 -0.131049,0.843423 -0.429891,1.576038 -0.183061,0.01451 -0.366376,0.02582 -0.549838,0.03394 -0.36456,-0.690271 -0.506035,-1.21865 -0.552974,-1.512217 -0.252905,0.0038 -0.50589,0.0022 -0.758719,-0.0046 -0.07464,0.291769 -0.247155,0.816976 -0.645049,1.500871 -0.183299,-0.01111 -0.366404,-0.02542 -0.549211,-0.04292 -0.264945,-0.73429 -0.331507,-1.277216 -0.337132,-1.574458 -0.250971,-0.03145 -0.501278,-0.06819 -0.75069,-0.11019 -0.114517,0.278542 -0.35845,0.774627 -0.847652,1.396491 -0.179969,-0.03651 -0.359301,-0.07616 -0.537893,-0.118935 -0.160173,-0.764017 -0.150526,-1.310923 -0.114729,-1.606056 -0.244151,-0.06607 -0.486909,-0.137293 -0.728048,-0.213593 -0.152168,0.259894 -0.46277,0.717202 -1.033757,1.26493 -0.173136,-0.0612 -0.345204,-0.125427 -0.516106,-0.192637 -0.05228,-0.778874 0.03338,-1.319115 0.109907,-1.606393 -0.232579,-0.09941 -0.463062,-0.203723 -0.691236,-0.31284 -0.186857,0.236187 -0.558081,0.645818 -1.19974,1.108749 -0.162934,-0.0847 -0.32439,-0.17225 -0.484274,-0.262591 0.05662,-0.77857 0.216644,-1.301631 0.332404,-1.575463 -0.21648,-0.130812 -0.430203,-0.266186 -0.64097,-0.405997 -0.21791,0.207883 -0.642531,0.561863 -1.342373,0.930987 -0.149538,-0.106598 -0.297238,-0.215763 -0.442993,-0.327476 0.164428,-0.763113 0.395688,-1.258813 0.548432,-1.513869 -0.196169,-0.159667 -0.388971,-0.323468 -0.578229,-0.491251"
     style="fill:url(#radialGradient4584);fill-opacity:1;stroke:#000000;stroke-width:0.08940168px;stroke-linecap:butt;stroke-linejoin:miter;stroke-opacity:1"
     inkscape:connector-curvature="0" />
  <path
     id="path4548-0"
     d="m -4.5872432,-34.539445 c 0,0 -0.07583,-0.476122 0.288739,-1.284509 0.175755,-0.02173 0.352195,-0.0379 0.528971,-0.04848 0.50545,0.728642 0.517439,1.210616 0.517439,1.210616 l -6.2e-4,0.303472 c 0.291918,5.96e-4 0.583796,0.01979 0.873276,0.05744 l 0.03913,-0.300939 c 0,0 0.07501,-0.476252 0.671542,-1.132416 0.173866,0.03365 0.346669,0.07279 0.518063,0.117349 0.25554896,0.849173 0.118013,1.311262 0.118013,1.311262 l -0.09437,0.288428 c 0.27744596,0.09077 0.54910596,0.199227 0.81278596,0.324482 l 0.130214,-0.274117 c 0,0 0.21851,-0.429762 0.98861,-0.869473 0.154958,0.08573 0.30720804,0.176355 0.45644504,0.271696 -0.01937,0.88658 -0.29296504,1.283552 -0.29296504,1.283552 l -0.178871,0.24515 c 0.23581604,0.172067 0.46066604,0.359159 0.67273504,0.559766 l 0.208547,-0.220463 c 0,0 0.34062,-0.341204 1.208907,-0.521421 0.120882,0.129419 0.237675,0.262656 0.350145,0.399448 -0.292387,0.837203 -0.675265,1.130199 -0.675265,1.130199 l -0.245879,0.177876 c 0.171103,0.236516 0.327134,0.483934 0.466832,0.740255 l 0.266467,-0.145228 c 0,0 0.429387,-0.219248 1.310866,-0.122328 0.07497,0.160439 0.144878,0.323246 0.209573,0.488098 -0.536787,0.705874 -0.991467,0.866215 -0.991467,0.866215 l -0.288811,0.09319 c 0.08964,0.277813 0.161579,0.561338 0.215233,0.848283 l 0.298303,-0.05578 c 0,0 0.476122,-0.07583 1.284509,0.288739 0.02172,0.175755 0.0379,0.352195 0.04848,0.528971 -0.728643,0.50545 -1.210616,0.517439 -1.210616,0.517439 l -0.303473,-6.2e-4 c -5.95e-4,0.291918 -0.01979,0.583796 -0.05744,0.873276 l 0.300939,0.03913 c 0,0 0.476252,0.07501 1.132416,0.671542 -0.03365,0.173866 -0.07279,0.346669 -0.117349,0.518063 -0.849173,0.255549 -1.311262,0.118013 -1.311262,0.118013 l -0.288428,-0.09437 c -0.09077,0.277446 -0.199227,0.549106 -0.324482,0.812786 l 0.274117,0.130214 c 0,0 0.429762,0.21851 0.869473,0.98861 -0.08573,0.154958 -0.176355,0.307208 -0.271696,0.456445 -0.88658,-0.01937 -1.283551,-0.292965 -1.283551,-0.292965 l -0.245151,-0.178878 c -0.172066,0.235816 -0.359159,0.460666 -0.559765,0.672735 l 0.220463,0.208547 c 0,0 0.341204,0.34062 0.52142,1.208907 -0.129418,0.120882 -0.262656,0.237675 -0.399447,0.350145 -0.837203,-0.292387 -1.13019904,-0.675265 -1.13019904,-0.675265 l -0.177876,-0.245879 c -0.236516,0.171103 -0.483934,0.327134 -0.740255,0.466832 l 0.145228,0.266467 c 0,0 0.219247,0.429387 0.122328,1.310866 -0.160439,0.07497 -0.323246,0.144878 -0.488098,0.209573 -0.705875,-0.536787 -0.86621496,-0.991467 -0.86621496,-0.991467 l -0.09319,-0.288811 c -0.277814,0.08964 -0.561339,0.161579 -0.848283,0.215233 l 0.05578,0.298303 c 0,0 0.07583,0.476122 -0.288739,1.284509 -0.175755,0.02172 -0.352195,0.0379 -0.528971,0.04849 -0.50545,-0.728643 -0.517439,-1.210616 -0.517439,-1.210616 l 6.2e-4,-0.303473 c -0.291918,-5.95e-4 -0.583796,-0.01979 -0.873276,-0.05744 l -0.03913,0.300939 c 0,0 -0.07501,0.476252 -0.671542,1.132416 -0.173866,-0.03365 -0.346669,-0.07279 -0.518063,-0.117349 -0.255549,-0.849173 -0.118013,-1.311262 -0.118013,-1.311262 l 0.09437,-0.288428 c -0.277446,-0.09077 -0.549106,-0.199227 -0.812786,-0.324482 l -0.130214,0.274117 c 0,0 -0.21851,0.429762 -0.98861,0.869473 -0.154958,-0.08573 -0.307208,-0.176355 -0.456445,-0.271696 0.01937,-0.88658 0.292965,-1.283551 0.292965,-1.283551 l 0.178878,-0.245151 c -0.235816,-0.172066 -0.460666,-0.359159 -0.672735,-0.559765 l -0.208547,0.220463 c 0,0 -0.34062,0.341204 -1.208907,0.52142 -0.120882,-0.129418 -0.237675,-0.262656 -0.350145,-0.399447 0.292387,-0.837203 0.675265,-1.130199 0.675265,-1.130199 l 0.245879,-0.177876 c -0.171103,-0.236516 -0.327134,-0.483934 -0.466832,-0.740255 l -0.266467,0.145228 c 0,0 -0.4293868,0.219247 -1.3108658,0.122328 -0.07497,-0.160439 -0.144878,-0.323246 -0.209573,-0.488098 0.536787,-0.705875 0.991467,-0.866215 0.991467,-0.866215 l 0.2888108,-0.09319 c -0.08964,-0.277814 -0.161579,-0.561339 -0.2152328,-0.848283 l -0.298303,0.05578 c 0,0 -0.476122,0.07583 -1.284509,-0.288739 -0.02172,-0.175755 -0.0379,-0.352195 -0.04848,-0.528971 0.728643,-0.50545 1.210616,-0.517439 1.210616,-0.517439 l 0.303473,6.2e-4 c 5.95e-4,-0.291918 0.01979,-0.583796 0.05744,-0.873277 l -0.300939,-0.03913 c 0,0 -0.476252,-0.07501 -1.132416,-0.671542 0.03365,-0.173866 0.07279,-0.346668 0.117349,-0.518063 0.849173,-0.255549 1.311262,-0.118013 1.311262,-0.118013 l 0.2884278,0.09437 c 0.09077,-0.277446 0.199227,-0.549106 0.324482,-0.812786 l -0.274126,-0.13021 c 0,0 -0.4297618,-0.218511 -0.8694728,-0.98861 0.08573,-0.154959 0.176355,-0.307208 0.271696,-0.456445 0.8865798,0.01937 1.2835508,0.292965 1.2835508,0.292965 l 0.245151,0.178878 c 0.172066,-0.235816 0.359159,-0.460667 0.559765,-0.672735 l -0.220463,-0.208547 c 0,0 -0.341204,-0.34062 -0.52142,-1.208907 0.129418,-0.120882 0.262656,-0.237675 0.399447,-0.350146 0.837203,0.292388 1.130199,0.675266 1.130199,0.675266 l 0.177876,0.245878 c 0.236516,-0.171102 0.483934,-0.327133 0.740255,-0.466831 l -0.145228,-0.266468 c 0,0 -0.219247,-0.429386 -0.122328,-1.310866 0.160439,-0.07497 0.323246,-0.144877 0.488098,-0.209572 0.705875,0.536787 0.866215,0.991466 0.866215,0.991466 l 0.09319,0.288811 c 0.277814,-0.08964 0.561339,-0.161578 0.848283,-0.215232 l -0.05578,-0.298303"
     style="fill:url(#radialGradient4592);fill-opacity:1;stroke:#000000;stroke-width:0.08940168px;stroke-linecap:butt;stroke-linejoin:miter;stroke-opacity:1"
     inkscape:connector-curvature="0" />
  <g
     id="g5517"
     transform="translate(-0.54996965,-0.4297896)">
    <path
       id="path5491"
       d="m -0.96572966,49.856683 c 0,0 -0.50851404,0.569618 -1.85851804,0.826819 -0.200822,-0.197495 -0.393668,-0.403111 -0.577914,-0.616173 0.343102,-1.330767 0.944096,-1.801767 0.944096,-1.801767 l 0.612443,-0.443049 c -0.298392,-0.412472 -0.556513,-0.854063 -0.769514,-1.316455 l -0.686545,0.316254 c 0,0 -0.705303,0.292573 -2.033213,-0.06146 -0.09525,-0.265079 -0.179779,-0.534003 -0.253334,-0.805897 0.886517,-1.050121 1.632366,-1.213718 1.632366,-1.213718 l 0.744017,-0.133443 c -0.08987,-0.501092 -0.130838,-1.010951 -0.122124,-1.519967 l -0.75577,-0.01291 c 0,0 -0.762403,-0.04239 -1.805201,-0.937532 0.02917,-0.28016 0.06974,-0.559126 0.121418,-0.836011 1.254355,-0.561474 1.997316,-0.385266 1.997316,-0.385266 l 0.728239,0.202592 c 0.136444,-0.490463 0.320751,-0.967601 0.549463,-1.422426 l -0.675317,-0.339585 c 0,0 -0.668487,-0.369008 -1.219652,-1.627929 0.147863,-0.239743 0.305413,-0.473506 0.472132,-0.700539 1.373752,0.03837 1.966678,0.519499 1.966678,0.519499 l 0.56822,0.498486 c 0.335732,-0.38269 0.70881204,-0.732606 1.11221304,-1.043155 l -0.461093,-0.598965 c 0,0 -0.44218404,-0.622509 -0.39253704,-1.995897 0.23724404,-0.151844 0.48061004,-0.294108 0.72932504,-0.426313 1.221057,0.630615 1.54651896,1.321355 1.54651896,1.321355 l 0.29565,0.695669 c 0.468538,-0.199121 0.9564941,-0.352507 1.4546914,-0.457279 l -0.1555589,-0.73971 c 0,0 -0.1282929,-0.752717 0.5123279,-1.968554 0.2796278,-0.03388 0.560623,-0.05645 0.842074,-0.06769 0.8265151,1.097968 0.8200424,1.861518 0.8200424,1.861518 l -0.035479,0.755049 c 0.5085218,0.02386 1.0147113,0.09741 1.5090265,0.219178 L 6.5715542,34.86746 c 0,0 0.2110028,-0.733838 1.3157174,-1.55132 0.2666366,0.09081 0.5295962,0.192383 0.7880356,0.304402 0.2682776,1.347846 -0.06883,2.032978 -0.06883,2.032978 L 8.24692,36.318408 c 0.4478055,0.242159 0.8719688,0.528024 1.2644975,0.852208 l 0.4813393,-0.582821 c 0,0 0.5085142,-0.569618 1.8585182,-0.826819 0.200822,0.197502 0.393668,0.403111 0.577914,0.616173 -0.343102,1.330767 -0.944104,1.801774 -0.944104,1.801774 l -0.612436,0.443042 c 0.298393,0.412472 0.556514,0.854063 0.769514,1.316455 l 0.686546,-0.316254 c 0,0 0.705303,-0.292573 2.033213,0.06146 0.09525,0.26508 0.179779,0.534003 0.253335,0.805904 -0.886525,1.050114 -1.632366,1.213711 -1.632366,1.213711 l -0.744011,0.133444 c 0.08987,0.501091 0.130838,1.01095 0.122117,1.519966 l 0.75577,0.01292 c 0,0 0.762403,0.04239 1.805209,0.937532 -0.02925,0.280151 -0.06974,0.559125 -0.121425,0.836011 -1.254355,0.561473 -1.997325,0.385258 -1.997325,0.385258 l -0.728231,-0.202593 c -0.136437,0.490471 -0.320751,0.967609 -0.549463,1.422427 l 0.675317,0.339584 c 0,0 0.668495,0.369016 1.219652,1.627937 -0.147863,0.239735 -0.305412,0.473499 -0.472132,0.700532 -1.373751,-0.03837 -1.966678,-0.519492 -1.966678,-0.519492 l -0.568212,-0.498494 c -0.33574,0.382691 -0.7088206,0.732607 -1.1122208,1.043155 l 0.4611005,0.598966 c 0,0 0.4421763,0.622517 0.3925283,1.995904 -0.2372353,0.151836 -0.4806095,0.2941 -0.7293245,0.426313 C 8.2045054,51.831984 7.8790442,51.141245 7.8790442,51.141245 L 7.5833865,50.445575 C 7.114856,50.644704 6.6268996,50.79809 6.1287099,50.902854 l 0.155559,0.739711 c 0,0 0.1282852,0.752716 -0.5123356,1.968562 -0.2796277,0.03388 -0.560623,0.05645 -0.8420664,0.06761 C 4.1033442,52.580773 4.109817,51.817223 4.109817,51.817223 L 4.145296,51.062166 C 3.6367586,51.038311 3.1305767,50.964771 2.6362615,50.843004 l -0.1807966,0.733944 c 0,0 -0.2110028,0.733845 -1.3157176,1.55132 -0.26662896,-0.09081 -0.52959596,-0.192382 -0.78803496,-0.304402 -0.268278,-1.347846 0.06883,-2.032978 0.06883,-2.032978 l 0.359557,-0.664886 c -0.447806,-0.242166 -0.871969,-0.528024 -1.264498,-0.852209 l -0.481339,0.582814"
       style="fill:url(#radialGradient5522);fill-opacity:1;stroke:#000000;stroke-width:0.17460972px;stroke-linecap:butt;stroke-linejoin:miter;stroke-opacity:1"
       inkscape:connector-curvature="0" />
    <path
       id="path5489"
       d="m 10.687538,14.232549 c 0,0 -0.7316955,-0.561147 -1.3841526,-2.15378 0.2006403,-0.247682 0.4073204,-0.490471 0.6197894,-0.728087 1.6763762,0.389824 2.3471502,1.022544 2.3471502,1.022544 l 0.145326,0.142682 c 0.327201,-0.333249 0.668137,-0.65302 1.021647,-0.958212 l -0.133094,-0.154161 c 0,0 -0.588482,-0.709899 -0.870191,-2.4077898 0.250728,-0.196819 0.50625,-0.387537 0.76627,-0.571912 1.547597,0.753081 2.060753,1.519191 2.060753,1.519191 l 0.109938,0.1714518 c 0.393152,-0.2520878 0.796689,-0.4879708 1.209259,-0.7068518 l -0.09546,-0.179916 c 0,0 -0.415753,-0.823043 -0.312584,-2.541051 0.288235,-0.136103 0.57979,-0.265171 0.874316,-0.387067 1.341221,1.078573 1.671035,1.939663 1.671035,1.939663 l 0.06906,0.191622 c 0.439388,-0.158286 0.885302,-0.298461 1.33623,-0.420045 L 20.0698,7.8141782 c 0,0 -0.222193,-0.89492 0.260681,-2.546902 0.3113,-0.06853 0.624264,-0.1295 0.938527,-0.182802 1.067594,1.349973 1.197528,2.262875 1.197528,2.262875 l 0.02469,0.202167 c 0.4636,-0.05652 0.929524,-0.09398 1.396194,-0.112171 l -0.0079,-0.203512 c 0,0 -0.01747,-0.921935 0.820893,-2.425036 0.318738,0.0023 0.637422,0.01269 0.955666,0.03062 0.740424,1.553698 0.663967,2.472617 0.663967,2.472617 l -0.02097,0.202585 c 0.464557,0.04801 0.927131,0.115218 1.38615,0.201324 l 0.03753,-0.200177 c 0,0 0.188105,-0.902706 1.339929,-2.18157 0.310207,0.07331 0.618628,0.154169 0.924891,0.242508 0.376134,1.679499 0.09711,2.558366 0.09711,2.558366 l -0.06549,0.192845 c 0.442221,0.150203 0.878244,0.318632 1.306601,0.504724 l 0.08115,-0.186806 c 0,0 0.384256,-0.838215 1.791777,-1.828714 0.286115,0.140501 0.568805,0.287969 0.847741,0.442244 -0.0068,1.721078 -0.474616,2.515829 -0.474616,2.515829 l -0.10677,0.173435 c 0.39771,0.2448408 0.785324,0.5060678 1.161526,0.7828088 l 0.120688,-0.16406 c 0,0 0.561147,-0.7316878 2.15378,-1.3841518 0.247682,0.20064 0.490471,0.40732 0.728087,0.619789 -0.389824,1.6763758 -1.022544,2.3471418 -1.022544,2.3471418 l -0.142689,0.145326 c 0.333256,0.327201 0.653027,0.668138 0.958219,1.021655 l 0.154161,-0.133094 c 0,0 0.709899,-0.588482 2.407782,-0.870191 0.196827,0.250728 0.387538,0.50625 0.571913,0.76627 -0.753074,1.547597 -1.519184,2.060753 -1.519184,2.060753 l -0.171452,0.109938 c 0.252088,0.393152 0.487971,0.796689 0.706852,1.209259 l 0.179916,-0.09545 c 0,0 0.823043,-0.415761 2.541051,-0.312591 0.136095,0.288235 0.265163,0.57979 0.387059,0.874316 -1.078565,1.341221 -1.939662,1.671035 -1.939662,1.671035 l -0.191608,0.06906 c 0.158279,0.439388 0.298454,0.885302 0.420038,1.33623 l 0.196645,-0.05303 c 0,0 0.894927,-0.222186 2.546901,0.260688 0.06853,0.311292 0.129508,0.624264 0.182802,0.938527 -1.349973,1.067587 -2.262867,1.197529 -2.262867,1.197529 l -0.202167,0.02469 c 0.05652,0.4636 0.09397,0.929525 0.112171,1.396202 l 0.203512,-0.008 c 0,0 0.921928,-0.01747 2.425036,0.820885 -0.0023,0.318738 -0.01269,0.637423 -0.03062,0.955674 -1.553698,0.740425 -2.472617,0.663967 -2.472617,0.663967 l -0.202585,-0.02097 c -0.04801,0.464557 -0.115218,0.927124 -0.201324,1.386151 l 0.200177,0.03753 c 0,0 0.902706,0.188105 2.18157,1.339922 -0.07331,0.310214 -0.154176,0.618635 -0.242508,0.924898 -1.679499,0.376142 -2.558366,0.09711 -2.558366,0.09711 l -0.192845,-0.06549 c -0.150203,0.442214 -0.318632,0.878244 -0.504724,1.306593 l 0.186806,0.08116 c 0,0 0.838215,0.384256 1.828714,1.791777 -0.140501,0.286116 -0.287969,0.568813 -0.442244,0.847742 -1.721085,-0.0068 -2.515829,-0.474616 -2.515829,-0.474616 l -0.173435,-0.10677 c -0.244841,0.39771 -0.506076,0.785323 -0.782809,1.161526 l 0.16406,0.12068 c 0,0 0.731688,0.561147 1.384152,2.153788 -0.20064,0.247682 -0.40732,0.490471 -0.619789,0.728086 -1.676376,-0.389824 -2.347142,-1.022543 -2.347142,-1.022543 l -0.145311,-0.142664 c -0.327201,0.333256 -0.668138,0.653019 -1.021655,0.958219 l 0.133094,0.154161 c 0,0 0.588482,0.709899 0.870191,2.407783 -0.250728,0.196826 -0.50625,0.387537 -0.76627,0.571912 -1.547597,-0.753073 -2.060753,-1.519191 -2.060753,-1.519191 l -0.109938,-0.171445 c -0.393152,0.252088 -0.796689,0.487972 -1.209251,0.706845 l 0.09544,0.179923 c 0,0 0.415761,0.823043 0.312592,2.541052 -0.288236,0.136095 -0.579791,0.265163 -0.874317,0.387059 -1.341218,-1.078566 -1.671032,-1.939663 -1.671032,-1.939663 l -0.06906,-0.191615 c -0.439396,0.158287 -0.885309,0.298461 -1.336237,0.420046 l 0.05303,0.196644 c 0,0 0.222193,0.894927 -0.260688,2.546902 -0.311293,0.06853 -0.624257,0.129508 -0.938528,0.182802 -1.067587,-1.349973 -1.197528,-2.262868 -1.197528,-2.262868 l -0.02469,-0.202175 c -0.4636,0.05652 -0.929525,0.09398 -1.396194,0.11218 l 0.0079,0.203512 c 0,0 0.01747,0.921927 -0.820885,2.425036 -0.318746,-0.0023 -0.637423,-0.01269 -0.955674,-0.03062 -0.740425,-1.553682 -0.66396,-2.472609 -0.66396,-2.472609 l 0.02097,-0.202585 C 22.336375,41.297008 21.873801,41.2298 21.414782,41.143694 l -0.03753,0.200177 c 0,0 -0.188112,0.902706 -1.339929,2.18157 -0.310215,-0.07331 -0.618636,-0.154169 -0.924906,-0.242508 -0.376127,-1.679499 -0.09711,-2.558366 -0.09711,-2.558366 l 0.06549,-0.192845 c -0.442214,-0.150203 -0.878236,-0.318639 -1.3066,-0.504723 l -0.08114,0.186806 c 0,0 -0.384264,0.838214 -1.791785,1.828713 -0.286115,-0.140501 -0.568805,-0.287969 -0.847741,-0.442244 0.0068,-1.721085 0.474616,-2.515829 0.474616,-2.515829 l 0.10677,-0.173435 c -0.397703,-0.244841 -0.785316,-0.506068 -1.161526,-0.782809 l -0.120688,0.16406 c 0,0 -0.561147,0.731688 -2.15378,1.384153 -0.247675,-0.200641 -0.490471,-0.407321 -0.728087,-0.61979 0.389824,-1.676376 1.022544,-2.347142 1.022544,-2.347142 l 0.142689,-0.145333 c -0.333256,-0.327194 -0.653019,-0.66813 -0.958211,-1.021648 l -0.154169,0.133094 c 0,0 -0.709891,0.588482 -2.4077827,0.870191 -0.1968266,-0.250728 -0.3875374,-0.50625 -0.5719123,-0.766269 0.7530736,-1.547598 1.519191,-2.060754 1.519191,-2.060754 L 10.23463,33.608825 C 9.9825388,33.215676 9.7466554,32.812139 9.5277744,32.399569 l -0.1799078,0.09546 c 0,0 -0.8230508,0.415754 -2.5410592,0.312584 C 6.6707199,32.519378 6.541637,32.227823 6.4197486,31.933297 7.4983214,30.592076 8.359411,30.262262 8.359411,30.262262 l 0.1916149,-0.06906 C 8.3927396,29.753814 8.2525649,29.3079 8.1309804,28.856972 l -0.1966443,0.05303 c 0,0 -0.8949272,0.222186 -2.5469014,-0.260688 C 5.3189087,28.338022 5.257934,28.025058 5.2046249,27.710787 6.5546053,26.6432 7.4674998,26.513258 7.4674998,26.513258 l 0.2021749,-0.02469 c -0.056523,-0.4636 -0.093976,-0.929525 -0.1121716,-1.396202 l -0.2035121,0.008 c 0,0 -0.9219351,0.01747 -2.4250434,-0.820886 0.00228,-0.318737 0.012687,-0.637422 0.030617,-0.955673 1.55369,-0.740425 2.472609,-0.663967 2.472609,-0.663967 l 0.2025852,0.02097 c 0.048014,-0.464557 0.1152182,-0.927124 0.2013317,-1.386151 l -0.2001769,-0.03753 c 0,0 -0.9027144,-0.188105 -2.181578,-1.33993 0.073312,-0.310206 0.1541762,-0.618627 0.2425157,-0.92489 1.679491,-0.376142 2.5583655,-0.09711 2.5583655,-0.09711 l 0.1928381,0.06549 c 0.1502029,-0.442214 0.318639,-0.878244 0.5047232,-1.306593 l -0.1867988,-0.08119 c 0,0 -0.8382147,-0.384256 -1.8287139,-1.791777 0.1405014,-0.286116 0.2879694,-0.568813 0.4422368,-0.847742 1.7210929,0.0068 2.5158367,0.474616 2.5158367,0.474616 l 0.1734351,0.10677 c 0.24484,-0.39771 0.506068,-0.785323 0.782809,-1.161526 l -0.16406,-0.120688"
       style="fill:url(#radialGradient5524);fill-opacity:1;stroke:#000000;stroke-width:0.17460972px;stroke-linecap:butt;stroke-linejoin:miter;stroke-opacity:1"
       inkscape:connector-curvature="0" />
    <path
       id="path5487"
       d="m 39.10718,12.27188 c 0,0 -0.508514,0.569611 -1.858517,0.826819 -0.20083,-0.197503 -0.393676,-0.403119 -0.577914,-0.616173 0.343094,-1.330775 0.944096,-1.801774 0.944096,-1.801774 l 0.612435,-0.44305 C 37.928888,9.8252312 37.670767,9.3836402 37.457766,8.9212482 l -0.686545,0.316253 c 0,0 -0.705303,0.292581 -2.033206,-0.06146 -0.09525,-0.265071 -0.179786,-0.534002 -0.253342,-0.805896 0.886525,-1.050122 1.632374,-1.213718 1.632374,-1.213718 l 0.74401,-0.133437 c -0.08987,-0.501099 -0.130838,-1.01095 -0.122116,-1.519973 l -0.755778,-0.01292 c 0,0 -0.762396,-0.04247 -1.805201,-0.937539 0.02917,-0.280152 0.06974,-0.559127 0.121425,-0.836004 1.254355,-0.561474 1.997317,-0.385266 1.997317,-0.385266 l 0.728231,0.202593 c 0.136444,-0.490471 0.320758,-0.967602 0.549463,-1.422427 l -0.675317,-0.339584 c 0,0 -0.668487,-0.369016 -1.219644,-1.62793703 0.147863,-0.239735 0.305405,-0.473507 0.472124,-0.700532 1.373752,0.03837 1.966685,0.519492 1.966685,0.519492 l 0.568213,0.498494 c 0.33574,-0.382691 0.70882,-0.732607 1.112213,-1.043155 L 39.337579,-1.1807228 c 0,0 -0.442176,-0.622517 -0.392529,-1.995904 0.237236,-0.151844 0.48061,-0.294108 0.729317,-0.426321 1.221057,0.630623 1.546526,1.321362 1.546526,1.321362 l 0.29565,0.69567 c 0.468538,-0.199121 0.956487,-0.352507 1.454684,-0.45728 l -0.155559,-0.73971 c 0,0 -0.128292,-0.752716 0.512328,-1.968562 0.279628,-0.03388 0.560623,-0.05645 0.842074,-0.06769 0.826516,1.097968 0.82005,1.861518 0.82005,1.861518 l -0.03548,0.755049 c 0.508529,0.02393 1.014719,0.09741 1.509026,0.21917 l 0.180797,-0.733944 c 0,0 0.21101,-0.733838 1.315725,-1.55132 0.266629,0.09081 0.529588,0.192382 0.788028,0.304402 0.268277,1.347846 -0.06883,2.032978 -0.06883,2.032978 l -0.359557,0.664886 c 0.447805,0.242166 0.871961,0.52803097 1.264489,0.85221597 l 0.48134,-0.582822 c 0,0 0.508514,-0.56961797 1.858517,-0.82682597 0.20083,0.197503 0.393676,0.403119 0.577914,0.616181 -0.343094,1.33076697 -0.944096,1.80177397 -0.944096,1.80177397 L 50.945558,1.0371462 c 0.298392,0.412471 0.556513,0.854063 0.769514,1.316455 l 0.686547,-0.316254 c 0,0 0.705295,-0.292573 2.033208,0.06146 0.09524,0.265079 0.179786,0.534002 0.253341,0.805904 -0.886525,1.050114 -1.632375,1.213711 -1.632375,1.213711 l -0.74401,0.133443 c 0.08987,0.501092 0.13083,1.010943 0.122124,1.519967 l 0.75577,0.01299 c 0,0 0.762397,0.04239 1.805203,0.937532 -0.02925,0.280152 -0.06974,0.559126 -0.121425,0.836011 -1.254356,0.561474 -1.997319,0.385258 -1.997319,0.385258 l -0.728231,-0.202592 c -0.136444,0.490471 -0.320751,0.967609 -0.549463,1.422434 l 0.67531,0.339577 c 0,0 0.668494,0.369015 1.219653,1.6279368 -0.147863,0.239735 -0.305407,0.473506 -0.472126,0.700539 -1.373752,-0.03837 -1.966685,-0.5195 -1.966685,-0.5195 l -0.568213,-0.498493 c -0.33574,0.38269 -0.70882,0.732607 -1.11222,1.043155 l 0.4611,0.598965 c 0,0 0.442176,0.622517 0.392537,1.995904 -0.237244,0.151837 -0.480618,0.294101 -0.729333,0.426314 -1.221057,-0.630623 -1.546511,-1.321362 -1.546511,-1.321362 l -0.295657,-0.69567 c -0.468531,0.199128 -0.956487,0.352515 -1.454684,0.457279 l 0.155559,0.73971 c 0,0 0.128285,0.752717 -0.512336,1.968562 -0.27962,0.03388 -0.560615,0.05645 -0.842066,0.06761 -0.826515,-1.097961 -0.82005,-1.861519 -0.82005,-1.861519 l 0.03548,-0.755048 c -0.508529,-0.02393 -1.014711,-0.0974 -1.509034,-0.21917 l -0.180789,0.733944 c 0,0 -0.21101,0.733845 -1.315725,1.551327 -0.266629,-0.09082 -0.529588,-0.19239 -0.788028,-0.304409 -0.268277,-1.347846 0.06883,-2.032971 0.06883,-2.032971 l 0.35955,-0.664894 c -0.447806,-0.242166 -0.871961,-0.528023 -1.26449,-0.852208 l -0.481339,0.582822"
       style="fill:url(#radialGradient5526);fill-opacity:1;stroke:#000000;stroke-width:0.17460972px;stroke-linecap:butt;stroke-linejoin:miter;stroke-opacity:1"
       inkscape:connector-curvature="0" />
  </g>
  <g
     id="g4624"
     transform="matrix(6.1293464,0,0,6.1293464,-103.1906,-19.223447)">
    <g
       word-spacing="normal"
       letter-spacing="normal"
       font-size-adjust="none"
       font-stretch="normal"
       font-weight="normal"
       font-variant="normal"
       font-style="normal"
       fill-rule="even-odd"
       stroke-miterlimit="10.433"
       xml:space="preserve"
       transform="matrix(0.06857143,0,0,-0.06857143,-12,36)"
       id="content"
       style="font-style:normal;font-variant:normal;font-weight:normal;font-stretch:normal;letter-spacing:normal;word-spacing:normal;text-anchor:start;fill:none;stroke:#000000;stroke-linecap:butt;stroke-linejoin:miter;stroke-miterlimit:10.43299961;stroke-opacity:1;stroke-dasharray:none;stroke-dashoffset:0"><path
         id="path4627"
         d="m 480.21,436.93 h 8.27 c 6.57,0 9.06,3.79 9.06,4.44 0,0.25 -0.2,0.34 -0.44,0.34 -0.55,0 -1.85,-0.49 -3.09,-1.39 -0.4,-0.3 -0.5,-0.3 -1.45,-0.3 h -21.77 c -6.17,0 -13.09,-5.33 -13.09,-9.41 0,-0.3 0,-0.6 0.39,-0.6 1.2,0 4.34,1.64 4.44,2.84 0.04,0.85 0.15,1.79 1.14,3.09 0.5,0.6 0.9,0.99 3.09,0.99 h 9.91 c -0.85,-0.54 -1.05,-1.29 -1.14,-1.79 l -5.68,-22.57 c -0.6,-2.44 -1.65,-5.57 -3.09,-8.81 -0.3,-0.6 -0.3,-0.7 -0.3,-0.8 0,-0.3 0.2,-0.35 0.45,-0.35 1,0 3.44,1.35 4.18,2.39 0.3,0.5 2.5,5.58 3.54,9.72 z"
         inkscape:connector-curvature="0"
         style="fill:#000000;stroke-width:0" /></g>  </g>
  <path
     style="fill:none;stroke:#000000;stroke-width:1px;stroke-linecap:butt;stroke-linejoin:miter;stroke-opacity:1"
     d="m 267.94012,-65.6344 c 0,0 -2.91229,3.262219 -10.64384,4.735251 -1.15014,-1.131107 -2.25459,-2.308673 -3.30975,-3.528865 1.96495,-7.621389 5.40691,-10.318872 5.40691,-10.318872 l 3.50746,-2.537328 c -1.7089,-2.362277 -3.18719,-4.891289 -4.40705,-7.539423 l -3.93189,1.811221 c 0,0 -4.0393,1.675564 -11.64431,-0.351872 -0.54547,-1.51812 -1.02962,-3.058274 -1.45087,-4.615445 5.07716,-6.014076 9.34865,-6.951014 9.34865,-6.951014 l 4.26102,-0.764224 c -0.51471,-2.869799 -0.74931,-5.789769 -0.69938,-8.704929 l -4.32837,-0.0741 c 0,0 -4.36629,-0.24296 -10.33849,-5.3693 0.16723,-1.60445 0.39928,-3.20215 0.69538,-4.78788 7.18377,-3.2156 11.43877,-2.20643 11.43877,-2.20643 l 4.17063,1.16025 c 0.78142,-2.80892 1.83699,-5.54151 3.14681,-8.14632 l -3.86756,-1.9448 c 0,0 -3.82848,-2.11336 -6.98501,-9.32328 0.84682,-1.373 1.7491,-2.71179 2.7039,-4.01201 7.86755,0.21976 11.26331,2.97518 11.26331,2.97518 l 3.25419,2.85491 c 1.92279,-2.1917 4.05944,-4.19569 6.36974,-5.97423 l -2.64074,-3.43028 c 0,0 -2.53238,-3.56518 -2.24805,-11.43066 1.35868,-0.86961 2.75248,-1.68434 4.17688,-2.44152 6.99306,3.6116 8.857,7.56751 8.857,7.56751 l 1.69323,3.98412 c 2.68332,-1.14039 5.47787,-2.01886 8.33105,-2.61886 l -0.89088,-4.23635 c 0,0 -0.73472,-4.31088 2.93415,-11.27406 1.60144,-0.19399 3.21071,-0.32328 4.82258,-0.38746 4.73352,6.28811 4.69647,10.661 4.69647,10.661 l -0.2031,4.32424 c 2.91238,0.13679 5.81134,0.55783 8.6423,1.25519 l 1.03543,-4.20336 c 0,0 1.20845,-4.20275 7.53521,-8.8845 1.52701,0.52007 3.03301,1.10181 4.5131,1.74335 1.53644,7.7192 -0.39426,11.64295 -0.39426,11.64295 l -2.05921,3.80789 c 2.56461,1.38687 4.9938,3.02403 7.24184,4.88064 l 2.75665,-3.33784 c 0,0 2.91229,-3.26222 10.64384,-4.73525 1.15014,1.13111 2.25459,2.30867 3.30975,3.52886 -1.96495,7.62139 -5.40691,10.31888 -5.40691,10.31888 l -3.50746,2.53732 c 1.7089,2.36228 3.18719,4.89129 4.40705,7.53943 l 3.93189,-1.81122 c 0,0 4.0393,-1.67557 11.64431,0.35187 0.54547,1.51812 1.02962,3.05827 1.45087,4.61544 -5.07716,6.01408 -9.34865,6.95102 -9.34865,6.95102 l -4.26102,0.76422 c 0.51471,2.8698 0.74931,5.78977 0.69938,8.70493 l 4.32837,0.0741 c 0,0 4.36629,0.24296 10.33849,5.369303 -0.16723,1.604451 -0.39928,3.202146 -0.69538,4.78788 -7.18377,3.215601 -11.43877,2.206422 -11.43877,2.206422 l -4.17063,-1.160244 c -0.78142,2.808922 -1.83699,5.541509 -3.14681,8.146318 l 3.86756,1.9448 c 0,0 3.82848,2.113359 6.98501,9.323276 -0.84682,1.373001 -1.7491,2.711794 -2.7039,4.012017 -7.86755,-0.219763 -11.26331,-2.975179 -11.26331,-2.975179 l -3.25419,-2.854912 c -1.92279,2.191704 -4.05944,4.195689 -6.36974,5.974229 l 2.64074,3.430278 c 0,0 2.53238,3.565183 2.24805,11.430661 -1.35868,0.869611 -2.75248,1.684337 -4.17688,2.441524 -6.99306,-3.611601 -8.857,-7.567509 -8.857,-7.567509 l -1.69323,-3.984129 c -2.68332,1.140391 -5.47787,2.01886 -8.33105,2.618869 l 0.89088,4.236348 c 0,0 0.73472,4.310878 -2.93415,11.274063 -1.60144,0.193984 -3.21071,0.323277 -4.82258,0.387457 -4.73352,-6.288116 -4.69647,-10.661001 -4.69647,-10.661001 l 0.2031,-4.32424 c -2.91238,-0.13679 -5.81134,-0.557828 -8.6423,-1.255189 l -1.03543,4.203356 c 0,0 -1.20845,4.202752 -7.53521,8.884499 -1.52701,-0.520064 -3.03301,-1.101812 -4.5131,-1.74335 -1.53644,-7.719193 0.39426,-11.642951 0.39426,-11.642951 l 2.05921,-3.807883 c -2.56461,-1.386878 -4.9938,-3.024032 -7.24184,-4.880641 l -2.75665,3.337838 m 72.60154,-205.83422 c 0,0 -3.96078,-3.38239 -7.11627,-12.56372 1.21719,-1.34877 2.46822,-2.66699 3.75152,-3.95302 9.33372,2.67125 12.91852,6.44981 12.91852,6.44981 l 0.93724,1.02962 c 1.9978,-1.81856 4.07435,-3.55061 6.22187,-5.18967 l -0.84473,-1.10678 c 0,0 -3.07399,-4.20463 -4.02706,-13.86618 1.49542,-1.03171 3.01674,-2.0259 4.56202,-2.98131 8.4661,4.75174 11.08288,9.25516 11.08288,9.25516 l 0.67453,1.21802 c 2.36334,-1.30881 4.78335,-2.51529 7.25097,-3.61492 l -0.56672,-1.27176 c 0,0 -2.02147,-4.8002 -0.72074,-14.42112 1.69304,-0.65903 3.40262,-1.27558 5.12658,-1.84887 7.14207,6.57608 8.64975,11.56158 8.64975,11.56158 l 0.37546,1.34074 c 2.60147,-0.72851 5.23448,-1.34438 7.88918,-1.84529 l -0.25816,-1.36817 c 0,0 -0.85998,-5.137 2.62442,-14.19861 1.79939,-0.25083 3.60508,-0.4565 5.41478,-0.61677 5.43301,8.0459 5.75031,13.24471 5.75031,13.24471 l 0.0561,1.39118 c 2.69935,-0.10893 5.40342,-0.10098 8.10208,0.0238 l 0.0643,-1.39083 c 0,0 0.34787,-5.19686 5.8281,-13.21066 1.80873,0.17091 3.61318,0.3872 5.41106,0.6486 3.43105,9.08195 2.54087,14.2138 2.54087,14.2138 l -0.2662,1.36663 c 2.65171,0.51652 5.28105,1.14786 7.87819,1.89165 l 0.38334,-1.3385 c 0,0 1.53697,-4.97655 8.71759,-11.51051 1.72057,0.58342 3.42649,1.21002 5.11563,1.87899 1.24412,9.6284 -0.80555,14.41664 -0.80555,14.41664 l -0.57419,1.2684 c 2.46111,1.11412 4.87399,2.33481 7.22959,3.6575 l 0.68168,-1.21403 c 0,0 2.64322,-4.48795 11.13712,-9.18982 1.53964,0.96449 3.05507,1.9676 4.5444,3.00809 -1.00987,9.65578 -4.10853,13.84226 -4.10853,13.84226 l -0.85123,1.10179 c 2.13784,1.65167 4.20416,3.3959 6.19124,5.22617 l 0.94328,-1.02409 c 0,0 3.60696,-3.75741 12.95623,-6.37371 1.27571,1.29355 2.51897,2.61911 3.7282,3.97501 -3.20943,9.16261 -7.19003,12.52164 -7.19003,12.52164 l -1.08238,0.87579 c 1.69932,2.10017 3.30769,4.27391 4.81912,6.5131 l 1.15402,-0.77895 c 0,0 4.37626,-2.82431 14.07688,-3.214 0.94301,1.55288 1.84706,3.12943 2.711,4.72765 -5.23596,8.17549 -9.88391,10.52599 -9.88391,10.52599 l -1.25518,0.60256 c 1.16918,2.43545 2.23291,4.92151 3.1872,7.4489 l 1.30256,-0.49181 c 0,0 4.90962,-1.73895 14.43862,0.11898 0.55948,1.7285 1.07558,3.47104 1.54766,5.22542 -6.98022,6.74762 -12.04495,7.96287 -12.04495,7.96287 l -1.3603,0.29686 c 0.57601,2.63943 1.03774,5.30379 1.38345,7.98313 l 1.38087,-0.17817 c 0,0 5.17831,-0.55983 14.02199,3.44556 0.14577,1.81093 0.24611,3.62552 0.30088,5.44148 -8.34818,4.95598 -13.55665,4.97047 -13.55665,4.97047 l -1.39209,-0.0248 c -0.0482,2.70112 -0.21338,5.40015 -0.49488,8.08699 l 1.38473,0.14508 c 0,0 5.16784,0.64946 12.84943,6.58638 -0.27578,1.79574 -0.59662,3.58455 -0.96212,5.36419 -9.26609,2.89718 -14.33749,1.71011 -14.33749,1.71011 l -1.34885,-0.34521 c -0.66982,2.61719 -1.45298,5.20538 -2.34652,7.75488 l 1.31395,0.46051 c 0,0 4.87876,1.82374 10.98415,9.37212 -0.68248,1.68373 -1.4072,3.35034 -2.17326,4.99772 -9.68445,0.68217 -14.3454,-1.64244 -14.3454,-1.64244 l -1.23288,-0.64697 c -1.25533,2.39217 -2.61425,4.72999 -4.07167,7.0047 l 1.17233,0.75111 c 0,0 4.32667,2.8997 8.52671,11.65262 -1.05237,1.48095 -2.14191,2.9355 -3.26723,4.36181 -9.58072,-1.5696 -13.57995,-4.90644 -13.57995,-4.90644 l -1.05043,-0.91385 c -1.77318,2.03819 -3.6346,3.9996 -5.57732,5.87689 l 0.96751,1.00123 c 0,0 3.54133,3.81933 5.60959,13.30491 -1.36553,1.19834 -2.76114,2.36242 -4.18506,3.49077 -8.9605,-3.73676 -12.0824,-7.90594 -12.0824,-7.90594 l -0.81137,-1.13147 c -2.19542,1.57433 -4.459,3.05359 -6.78228,4.43226 l 0.71053,1.19737 c 0,0 2.56507,4.53306 2.39006,14.23993 -1.60509,0.85113 -3.23153,1.66198 -4.87728,2.43153 -7.85721,-5.70247 -9.93348,-10.47923 -9.93348,-10.47923 l -0.52857,-1.28808 c -2.4993,1.02559 -5.04301,1.94297 -7.62161,2.74869 l 0.41525,1.32895 c 0,0 1.45053,5.00242 -0.95832,14.40728 -1.75811,0.45803 -3.5277,0.87194 -5.30657,1.24121 -6.33033,-7.36075 -7.24904,-12.48758 -7.24904,-12.48758 l -0.21727,-1.37526 c -2.66845,0.42157 -5.35516,0.7276 -8.05006,0.91693 l 0.0976,1.3889 c 0,0 0.25779,5.2021 -4.25504,13.79793 -1.81634,0.0402 -3.63369,0.0349 -5.44976,-0.016 -4.4622,-8.62222 -4.17382,-13.82272 -4.17382,-13.82272 l 0.10575,-1.38829 c -2.69375,-0.20518 -5.37861,-0.527 -8.04453,-0.96426 l -0.22536,1.37396 c 0,0 -0.94884,5.12133 -7.32236,12.44472 -1.77666,-0.37973 -3.54379,-0.80404 -5.29917,-1.27239 -2.3535,-9.41887 -0.87357,-14.41267 -0.87357,-14.41267 l 0.42306,-1.32649 c -2.57382,-0.82087 -5.11209,-1.75319 -7.60532,-2.79346 l -0.53613,1.28495 c 0,0 -2.10433,4.76446 -9.99494,10.42062 -1.6412,-0.77922 -3.26284,-1.59962 -4.8629,-2.46017 -0.11792,-9.70773 2.47377,-14.22563 2.47377,-14.22563 l 0.71757,-1.19317 c -2.31514,-1.39231 -4.56998,-2.88486 -6.7561,-4.47207 l -0.81802,1.12667 c 0,0 -3.14636,4.15075 -12.12868,7.83475 -1.41726,-1.13671 -2.80599,-2.30897 -4.16446,-3.51532 2.12401,-9.47325 5.68774,-13.27169 5.68774,-13.27169 l 0.97339,-0.99553 c -1.93164,-1.88868 -3.7815,-3.861 -5.54266,-5.90959 l -1.05579,0.90766 c 0,0 -4.01878,3.31326 -13.60857,4.82649 -1.11692,-1.4329 -2.19788,-2.89383 -3.24152,-4.38095 4.25144,-8.72807 8.59509,-11.60227 8.59509,-11.60227 l 1.17673,-0.74421 c -1.44401,-2.28324 -2.78916,-4.62901 -4.0304,-7.02852 l -1.23666,0.63971 c 0,0 -4.67454,2.29716 -14.35481,1.55804 -0.75636,-1.65186 -1.47127,-3.3227 -2.14383,-5.01041 6.14968,-7.51235 11.03908,-9.30736 11.03908,-9.30736 l 1.31664,-0.45278 c -0.87854,-2.55471 -1.64646,-5.14746 -2.30088,-7.76854 l -1.35085,0.33727 c 0,0 -5.0783,1.15722 -14.32719,-1.7944 -0.35502,-1.78177 -0.66534,-3.57244 -0.93056,-5.36976 7.71638,-5.89164 12.88795,-6.51069 12.88795,-6.51069 l 1.38556,-0.13694 c -0.2657,-2.68845 -0.41499,-5.3884 -0.44731,-8.08976 l -1.39221,0.0167 c 0,0 -5.20829,-0.0451 -13.52718,-5.05012 0.0654,-1.8156 0.17645,-3.62957 0.33288,-5.43961 8.86708,-3.95331 14.04201,-3.36303 14.04201,-3.36303 l 1.3798,0.18629 c 0.36146,-2.67726 0.83885,-5.33886 1.43037,-7.97486 l -1.35853,-0.30486 c 0,0 -5.05749,-1.24501 -11.99791,-8.03357 0.48239,-1.75157 1.00873,-3.49104 1.57836,-5.21622 9.53977,-1.80186 14.43908,-0.0341 14.43908,-0.0341 l 1.29965,0.49947 c 0.96913,-2.52173 2.04746,-5.0015 3.23095,-7.43002 l -1.25161,-0.60994 c 0,0 -4.63405,-2.3778 -9.82184,-10.58394 0.87333,-1.59311 1.78663,-3.16431 2.73876,-4.71162 9.69816,0.44673 14.05773,3.29673 14.05773,3.29673 l 1.14943,0.78573 c 1.52456,-2.23027 3.1457,-4.39451 4.85734,-6.48464 l -1.07721,-0.88214 m 166.14007,-3.38572 c 0,0 -2.11336,3.82848 -9.32328,6.98501 -1.373,-0.84682 -2.71179,-1.7491 -4.01201,-2.7039 0.21976,-7.86755 2.97518,-11.26331 2.97518,-11.26331 l 2.85491,-3.25419 c -2.1917,-1.92279 -4.19569,-4.05944 -5.97423,-6.36974 l -3.43028,2.64074 c 0,0 -3.56518,2.53238 -11.43066,2.24805 -0.86961,-1.35868 -1.68434,-2.75248 -2.44152,-4.17688 3.6116,-6.99306 7.56751,-8.857 7.56751,-8.857 l 3.98412,-1.69323 c -1.14039,-2.68332 -2.01886,-5.47787 -2.61886,-8.33105 l -4.23635,0.89088 c 0,0 -4.31088,0.73472 -11.27406,-2.93415 -0.19399,-1.60144 -0.32328,-3.21071 -0.38746,-4.82258 6.28811,-4.73352 10.661,-4.69647 10.661,-4.69647 l 4.32424,0.2031 c 0.13679,-2.91238 0.55783,-5.81134 1.25519,-8.6423 l -4.20336,-1.03543 c 0,0 -4.20275,-1.20845 -8.8845,-7.53521 0.52007,-1.52701 1.10181,-3.03301 1.74335,-4.5131 7.7192,-1.53644 11.64295,0.39426 11.64295,0.39426 l 3.80789,2.05921 c 1.38687,-2.56461 3.02403,-4.9938 4.88064,-7.24184 l -3.33784,-2.75665 c 0,0 -3.26222,-2.91229 -4.73525,-10.64384 1.13111,-1.15014 2.30867,-2.25459 3.52886,-3.30975 7.62139,1.96495 10.31888,5.40691 10.31888,5.40691 l 2.53732,3.50746 c 2.36228,-1.7089 4.89129,-3.18719 7.53943,-4.40705 l -1.81122,-3.93189 c 0,0 -1.67557,-4.0393 0.35187,-11.64431 1.51812,-0.54547 3.05827,-1.02962 4.61544,-1.45087 6.01408,5.07716 6.95102,9.34865 6.95102,9.34865 l 0.76422,4.26102 c 2.8698,-0.51471 5.78977,-0.74931 8.70493,-0.69938 l 0.0741,-4.32837 c 0,0 0.24296,-4.36629 5.3693,-10.33849 1.60445,0.16723 3.20215,0.39928 4.78788,0.69538 3.2156,7.18377 2.20643,11.43877 2.20643,11.43877 l -1.16025,4.17063 c 2.80892,0.78142 5.54151,1.83699 8.14632,3.14681 l 1.9448,-3.86756 c 0,0 2.11336,-3.82848 9.32328,-6.98501 1.373,0.84682 2.71179,1.7491 4.01201,2.7039 -0.21976,7.86755 -2.97518,11.26331 -2.97518,11.26331 l -2.85491,3.25419 c 2.1917,1.92279 4.19569,4.05944 5.97423,6.36974 l 3.43028,-2.64074 c 0,0 3.56518,-2.53238 11.43066,-2.24805 0.86961,1.35868 1.68434,2.75248 2.44152,4.17688 -3.6116,6.99306 -7.56751,8.857 -7.56751,8.857 l -3.98412,1.69323 c 1.14039,2.68332 2.01886,5.47787 2.61886,8.33105 l 4.23635,-0.89088 c 0,0 4.31088,-0.73472 11.27406,2.93415 0.19399,1.60144 0.32328,3.21071 0.38746,4.82258 -6.28811,4.73352 -10.661,4.69647 -10.661,4.69647 l -4.32424,-0.2031 c -0.13679,2.91238 -0.55783,5.81134 -1.25519,8.6423 l 4.20336,1.03543 c 0,0 4.20275,1.20845 8.8845,7.53521 -0.52007,1.52701 -1.10181,3.03301 -1.74335,4.5131 -7.7192,1.53644 -11.64295,-0.39426 -11.64295,-0.39426 l -3.80789,-2.05921 c -1.38687,2.56461 -3.02403,4.9938 -4.88064,7.24184 l 3.33784,2.75665 c 0,0 3.26222,2.91229 4.73525,10.64384 -1.13111,1.15014 -2.30867,2.25459 -3.52886,3.30975 -7.62139,-1.96495 -10.31888,-5.40691 -10.31888,-5.40691 l -2.53732,-3.50746 c -2.36228,1.7089 -4.89129,3.18719 -7.53943,4.40705 l 1.81122,3.93189 c 0,0 1.67557,4.0393 -0.35187,11.64431 -1.51812,0.54547 -3.05827,1.02962 -4.61544,1.45087 -6.01408,-5.07716 -6.95102,-9.34865 -6.95102,-9.34865 l -0.76422,-4.26102 c -2.8698,0.51471 -5.78977,0.74931 -8.70493,0.69938 l -0.0741,4.32837 c 0,0 -0.24296,4.36629 -5.3693,10.33849 -1.60445,-0.16723 -3.20215,-0.39928 -4.78788,-0.69538 -3.2156,-7.18377 -2.20643,-11.43877 -2.20643,-11.43877 l 1.16025,-4.17063 c -2.80892,-0.78142 -5.54151,-1.83699 -8.14632,-3.14681 l -1.9448,3.86756 M 0,0"
     id="path5441-8"
     inkscape:connector-curvature="0"
     sodipodi:nodetypes="cccccc"
     inkscape:path-effect="#path-effect5443-3"
     inkscape:original-d="m 261.07007,-67.75517 38.25,-35.875 38.25,-35.875 76.5,-71.75 c 38.25,-35.875 76.5,-71.75 114.75,-107.625 l 38.25,-35.875" />
  <path
     style="fill:none;stroke:#000000;stroke-width:0.17460972px;stroke-linecap:butt;stroke-linejoin:miter;stroke-opacity:1"
     d="M -22.594681,-17.56383"
     id="path5441" />
</svg>
